{
  "source": "C:\\Users\\Peter\\Desktop\\stuff\\MIUN\\quantitative_research\\video_compression\\videos\\BVI-HD\\BVI-HD_CDVL_videos\\ORIG\\KineticFastPainting_1920x1080_60fps.mp4",
  "output": "C:\\Users\\Peter\\Desktop\\stuff\\MIUN\\quantitative_research\\video_compression\\compressed_videos\\BVI-HD\\av1\\4\\KineticFastPainting_1920x1080_60fps_av1.mkv",
  "codec": "av1",
  "ok": "Input #0, mov,mp4,m4a,3gp,3g2,mj2, from 'C:\\Users\\Peter\\Desktop\\stuff\\MIUN\\quantitative_research\\video_compression\\videos\\BVI-HD\\BVI-HD_CDVL_videos\\ORIG\\KineticFastPainting_1920x1080_60fps.mp4':\n  Metadata:\n    major_brand     : isom\n    minor_version   : 512\n    compatible_brands: isomiso2avc1mp41\n    encoder         : Lavf54.28.101\n  Duration: 00:00:05.00, start: 0.000000, bitrate: 477980 kb/s\n  Stream #0:0[0x1](und): Video: h264 (High 4:4:4 Predictive) (avc1 / 0x31637661), yuv420p(progressive), 1920x1080, 477974 kb/s, 60 fps, 60 tbr, 60 tbn (default)\n    Metadata:\n      handler_name    : VideoHandler\n      vendor_id       : [0][0][0][0]\n[out#0/matroska @ 0000019936259000] Codec AVOption b:a (set bitrate (in bits/s)) has not been used for any stream. The most likely reason is either wrong type (e.g. a video option with no video streams) or that it is a private option of some decoder which was not actually used for any stream.\nStream mapping:\n  Stream #0:0 -> #0:0 (h264 (native) -> av1 (libsvtav1))\nPress [q] to stop, [?] for help\nSvt[info]: -------------------------------------------\nSvt[info]: SVT [version]:\tSVT-AV1 Encoder Lib v3.1.0-19-g6ecfe8ec\nSvt[info]: SVT [build]  :\tGCC 15.2.0\t 64 bit\nSvt[info]: LIB Build date: Aug 17 2025 11:37:13\nSvt[info]: -------------------------------------------\nSvt[info]: Level of Parallelism: 5\nSvt[info]: Number of PPCS 93\nSvt[info]: [asm level on system : up to avx2]\nSvt[info]: [asm level selected : up to avx2]\nSvt[info]: -------------------------------------------\nSvt[info]: SVT [config]: main profile\ttier (auto)\tlevel (auto)\nSvt[info]: SVT [config]: width / height / fps numerator / fps denominator \t\t: 1920 / 1080 / 60 / 1\nSvt[info]: SVT [config]: bit-depth / color format \t\t\t\t\t: 8 / YUV420\nSvt[info]: SVT [config]: preset / tune / pred struct \t\t\t\t\t: 4 / PSNR / random access\nSvt[info]: SVT [config]: gop size / mini-gop size / key-frame type \t\t\t: 321 / 16 / key frame\nSvt[info]: SVT [config]: BRC mode / target bitrate (kbps)\t\t\t\t: VBR / 4000 \nSvt[info]: SVT [config]: AQ mode / Variance Boost \t\t\t\t\t: 2 / 0\nSvt[info]: SVT [config]: sharpness / luminance-based QP bias \t\t\t\t: 0 / 0\nSvt[info]: SVT [config]: QP scale compress strength \t\t\t\t\t: 0\nSvt[info]: -------------------------------------------\nOutput #0, matroska, to 'C:\\Users\\Peter\\Desktop\\stuff\\MIUN\\quantitative_research\\video_compression\\compressed_videos\\BVI-HD\\av1\\4\\KineticFastPainting_1920x1080_60fps_av1.mkv':\n  Metadata:\n    major_brand     : isom\n    minor_version   : 512\n    compatible_brands: isomiso2avc1mp41\n    encoder         : Lavf62.3.100\n  Stream #0:0(und): Video: av1 (AV01 / 0x31305641), yuv420p(tv, progressive), 1920x1080, q=2-31, 4000 kb/s, 60 fps, 1k tbn (default)\n    Metadata:\n      encoder         : Lavc62.11.100 libsvtav1\n      handler_name    : VideoHandler\n      vendor_id       : [0][0][0][0]\n    Side data:\n      cpb: bitrate max/min/avg: 0/0/4000000 buffer size: 4000000 vbv_delay: N/A\nframe=    0 fps=0.0 q=0.0 size=       0KiB time=N/A bitrate=N/A speed=N/A elapsed=0:00:01.03    \nframe=    0 fps=0.0 q=0.0 size=       0KiB time=N/A bitrate=N/A speed=N/A elapsed=0:00:01.64    \nframe=    0 fps=0.0 q=0.0 size=       0KiB time=N/A bitrate=N/A speed=N/A elapsed=0:00:02.26    \nframe=    0 fps=0.0 q=0.0 size=       0KiB time=N/A bitrate=N/A speed=N/A elapsed=0:00:02.82    \nframe=    0 fps=0.0 q=0.0 size=       0KiB time=N/A bitrate=N/A speed=N/A elapsed=0:00:03.41    \nframe=    0 fps=0.0 q=0.0 size=       0KiB time=N/A bitrate=N/A speed=N/A elapsed=0:00:03.98    \nframe=    1 fps=0.2 q=31.0 size=       1KiB time=00:00:00.00 bitrate=N/A speed=   0x elapsed=0:00:04.57    \nframe=    1 fps=0.2 q=31.0 size=       1KiB time=00:00:00.00 bitrate=N/A speed=   0x elapsed=0:00:05.15    \nframe=    1 fps=0.2 q=31.0 size=       1KiB time=00:00:00.00 bitrate=N/A speed=   0x elapsed=0:00:05.69    \nframe=    3 fps=0.5 q=44.0 size=       1KiB time=00:00:00.03 bitrate= 170.9kbits/s speed=0.00532x elapsed=0:00:06.26    \nframe=    5 fps=0.7 q=42.0 size=       1KiB time=00:00:00.06 bitrate=  85.4kbits/s speed=0.00971x elapsed=0:00:06.86    \nframe=    7 fps=0.9 q=42.0 size=       1KiB time=00:00:00.10 bitrate=  57.0kbits/s speed=0.0135x elapsed=0:00:07.40    \nframe=   10 fps=1.3 q=46.0 size=       1KiB time=00:00:00.15 bitrate=  38.0kbits/s speed=0.0188x elapsed=0:00:07.98    \nframe=   12 fps=1.4 q=46.0 size=       1KiB time=00:00:00.18 bitrate=  31.1kbits/s speed=0.0214x elapsed=0:00:08.57    \nframe=   17 fps=1.9 q=33.0 size=       1KiB time=00:00:00.26 bitrate=  21.4kbits/s speed=0.0292x elapsed=0:00:09.12    \nframe=   20 fps=2.1 q=46.0 size=       1KiB time=00:00:00.31 bitrate=  18.0kbits/s speed=0.0328x elapsed=0:00:09.65    \nframe=   23 fps=2.3 q=45.0 size=       1KiB time=00:00:00.36 bitrate=  15.5kbits/s speed=0.0359x elapsed=0:00:10.21    \nframe=   26 fps=2.4 q=46.0 size=       1KiB time=00:00:00.41 bitrate=  13.7kbits/s speed=0.0386x elapsed=0:00:10.79    \nframe=   29 fps=2.6 q=40.0 size=       1KiB time=00:00:00.45 bitrate=  12.7kbits/s speed=0.0397x elapsed=0:00:11.33    \nframe=   33 fps=2.8 q=31.0 size=       1KiB time=00:00:00.53 bitrate=  10.7kbits/s speed=0.045x elapsed=0:00:11.86    \nframe=   36 fps=2.9 q=48.0 size=       1KiB time=00:00:00.58 bitrate=   9.8kbits/s speed=0.0471x elapsed=0:00:12.37    \nframe=   39 fps=3.0 q=46.0 size=       1KiB time=00:00:00.63 bitrate=   9.0kbits/s speed=0.0489x elapsed=0:00:12.94    \nframe=   42 fps=3.1 q=48.0 size=       1KiB time=00:00:00.68 bitrate=   8.3kbits/s speed=0.0504x elapsed=0:00:13.56    \nframe=   45 fps=3.2 q=42.0 size=       1KiB time=00:00:00.73 bitrate=   7.8kbits/s speed=0.0519x elapsed=0:00:14.13    \nframe=   50 fps=3.4 q=48.0 size=       1KiB time=00:00:00.81 bitrate=   7.0kbits/s speed=0.0557x elapsed=0:00:14.65    \nframe=   53 fps=3.5 q=45.0 size=       1KiB time=00:00:00.86 bitrate=   6.6kbits/s speed=0.0571x elapsed=0:00:15.18    \nframe=   55 fps=3.5 q=47.0 size=       1KiB time=00:00:00.90 bitrate=   6.3kbits/s speed=0.0571x elapsed=0:00:15.76    \nframe=   59 fps=3.6 q=45.0 size=       1KiB time=00:00:00.96 bitrate=   5.9kbits/s speed=0.0593x elapsed=0:00:16.30    \nframe=   65 fps=3.9 q=35.0 size=       1KiB time=00:00:01.06 bitrate=   5.3kbits/s speed=0.0634x elapsed=0:00:16.83    \nframe=   68 fps=3.9 q=48.0 size=       1KiB time=00:00:01.11 bitrate=   5.1kbits/s speed=0.0643x elapsed=0:00:17.36    \nframe=   71 fps=4.0 q=47.0 size=       1KiB time=00:00:01.16 bitrate=   4.9kbits/s speed=0.065x elapsed=0:00:17.93    \nframe=   74 fps=4.0 q=48.0 size=       1KiB time=00:00:01.20 bitrate=   4.7kbits/s speed=0.0645x elapsed=0:00:18.60    \nframe=   77 fps=4.0 q=42.0 size=       1KiB time=00:00:01.26 bitrate=   4.5kbits/s speed=0.066x elapsed=0:00:19.18    \nframe=   81 fps=4.1 q=34.0 size=       1KiB time=00:00:01.33 bitrate=   4.3kbits/s speed=0.0675x elapsed=0:00:19.75    \nframe=   84 fps=4.1 q=49.0 size=       1KiB time=00:00:01.38 bitrate=   4.1kbits/s speed=0.068x elapsed=0:00:20.35    \nframe=   86 fps=4.1 q=49.0 size=       1KiB time=00:00:01.41 bitrate=   4.0kbits/s speed=0.0676x elapsed=0:00:20.94    \nframe=   88 fps=4.1 q=49.0 size=       1KiB time=00:00:01.45 bitrate=   3.9kbits/s speed=0.0674x elapsed=0:00:21.50    \nframe=   91 fps=4.1 q=46.0 size=       1KiB time=00:00:01.50 bitrate=   3.8kbits/s speed=0.0679x elapsed=0:00:22.09    \nframe=   96 fps=4.2 q=51.0 size=       1KiB time=00:00:01.58 bitrate=   3.6kbits/s speed=0.0699x elapsed=0:00:22.65    \nframe=   99 fps=4.3 q=49.0 size=       1KiB time=00:00:01.63 bitrate=   3.5kbits/s speed=0.0704x elapsed=0:00:23.18    \nframe=  102 fps=4.3 q=51.0 size=       1KiB time=00:00:01.68 bitrate=   3.4kbits/s speed=0.0708x elapsed=0:00:23.77    \nframe=  104 fps=4.3 q=51.0 size=       1KiB time=00:00:01.70 bitrate=   3.4kbits/s speed=0.0698x elapsed=0:00:24.36    \nframe=  107 fps=4.3 q=47.0 size=       1KiB time=00:00:01.75 bitrate=   3.3kbits/s speed=0.07x elapsed=0:00:25.01    \nframe=  111 fps=4.3 q=47.0 size=       1KiB time=00:00:01.83 bitrate=   3.1kbits/s speed=0.0714x elapsed=0:00:25.69    \nframe=  115 fps=4.4 q=49.0 size=       1KiB time=00:00:01.90 bitrate=   3.0kbits/s speed=0.0723x elapsed=0:00:26.29    \nframe=  119 fps=4.4 q=46.0 size=       1KiB time=00:00:01.96 bitrate=   2.9kbits/s speed=0.0731x elapsed=0:00:26.90    \nframe=  122 fps=4.4 q=51.0 size=       1KiB time=00:00:02.01 bitrate=   2.8kbits/s speed=0.0734x elapsed=0:00:27.46    \nframe=  126 fps=4.5 q=51.0 size=       1KiB time=00:00:02.08 bitrate=   2.7kbits/s speed=0.0744x elapsed=0:00:27.98    \nframe=  131 fps=4.6 q=49.0 size=       1KiB time=00:00:02.15 bitrate=   2.6kbits/s speed=0.0753x elapsed=0:00:28.55    \nframe=  134 fps=4.6 q=51.0 size=       1KiB time=00:00:02.21 bitrate=   2.6kbits/s speed=0.0761x elapsed=0:00:29.12    \nframe=  136 fps=4.6 q=51.0 size=       1KiB time=00:00:02.25 bitrate=   2.5kbits/s speed=0.0758x elapsed=0:00:29.68    \nframe=  139 fps=4.6 q=48.0 size=       1KiB time=00:00:02.30 bitrate=   2.5kbits/s speed=0.076x elapsed=0:00:30.26    \nframe=  145 fps=4.7 q=37.0 size=       1KiB time=00:00:02.40 bitrate=   2.4kbits/s speed=0.0779x elapsed=0:00:30.80    \nframe=  149 fps=4.8 q=47.0 size=       1KiB time=00:00:02.46 bitrate=   2.3kbits/s speed=0.0788x elapsed=0:00:31.32    \nframe=  152 fps=4.8 q=51.0 size=       1KiB time=00:00:02.51 bitrate=   2.3kbits/s speed=0.079x elapsed=0:00:31.86    \nframe=  155 fps=4.8 q=48.0 size=       1KiB time=00:00:02.56 bitrate=   2.2kbits/s speed=0.0793x elapsed=0:00:32.37    \nframe=  161 fps=4.9 q=37.0 size=       1KiB time=00:00:02.66 bitrate=   2.1kbits/s speed=0.081x elapsed=0:00:32.91    \nframe=  166 fps=5.0 q=50.0 size=       1KiB time=00:00:02.75 bitrate=   2.1kbits/s speed=0.0823x elapsed=0:00:33.43    \nframe=  170 fps=5.0 q=50.0 size=       1KiB time=00:00:02.80 bitrate=   2.0kbits/s speed=0.0825x elapsed=0:00:33.94    \nframe=  175 fps=5.1 q=46.0 size=       1KiB time=00:00:02.90 bitrate=   2.0kbits/s speed=0.084x elapsed=0:00:34.51    \nframe=  181 fps=5.2 q=46.0 size=       1KiB time=00:00:03.00 bitrate=   1.9kbits/s speed=0.0856x elapsed=0:00:35.03    \nframe=  185 fps=5.2 q=43.0 size=       1KiB time=00:00:03.05 bitrate=   1.9kbits/s speed=0.0858x elapsed=0:00:35.56    \nframe=  191 fps=5.3 q=47.0 size=       1KiB time=00:00:03.15 bitrate=   1.8kbits/s speed=0.0872x elapsed=0:00:36.12    \nframe=  197 fps=5.4 q=47.0 size=       1KiB time=00:00:03.26 bitrate=   1.7kbits/s speed=0.0891x elapsed=0:00:36.65    \nframe=  200 fps=5.4 q=51.0 size=       1KiB time=00:00:03.31 bitrate=   1.7kbits/s speed=0.0892x elapsed=0:00:37.16    \nframe=  205 fps=5.4 q=45.0 size=       1KiB time=00:00:03.40 bitrate=   1.7kbits/s speed=0.0902x elapsed=0:00:37.67    \nframe=  213 fps=5.6 q=47.0 size=       1KiB time=00:00:03.53 bitrate=   1.6kbits/s speed=0.0925x elapsed=0:00:38.20    \nframe=  219 fps=5.7 q=48.0 size=       1KiB time=00:00:03.63 bitrate=   1.6kbits/s speed=0.0939x elapsed=0:00:38.70    \nframe=  225 fps=5.7 q=37.0 size=       1KiB time=00:00:03.73 bitrate=   1.5kbits/s speed=0.0951x elapsed=0:00:39.23    \nframe=  231 fps=5.8 q=49.0 size=       1KiB time=00:00:03.83 bitrate=   1.5kbits/s speed=0.0964x elapsed=0:00:39.74    \nframe=  235 fps=5.8 q=48.0 size=       1KiB time=00:00:03.90 bitrate=   1.5kbits/s speed=0.0968x elapsed=0:00:40.27    \nframe=  243 fps=6.0 q=50.0 size=       1KiB time=00:00:04.03 bitrate=   1.4kbits/s speed=0.0988x elapsed=0:00:40.80    \nframe=  249 fps=6.0 q=44.0 size=       1KiB time=00:00:04.13 bitrate=   1.4kbits/s speed= 0.1x elapsed=0:00:41.32    \nframe=  253 fps=6.0 q=45.0 size=       1KiB time=00:00:04.20 bitrate=   1.4kbits/s speed= 0.1x elapsed=0:00:41.83    \nframe=  257 fps=6.1 q=38.0 size=       1KiB time=00:00:04.26 bitrate=   1.3kbits/s speed=0.101x elapsed=0:00:42.35    \nframe=  265 fps=6.2 q=45.0 size=       1KiB time=00:00:04.40 bitrate=   1.3kbits/s speed=0.103x elapsed=0:00:42.88    \nframe=  269 fps=6.2 q=47.0 size=       1KiB time=00:00:04.46 bitrate=   1.3kbits/s speed=0.103x elapsed=0:00:43.40    \nframe=  275 fps=6.3 q=50.0 size=       1KiB time=00:00:04.56 bitrate=   1.2kbits/s speed=0.104x elapsed=0:00:43.94    \nframe=  281 fps=6.3 q=47.0 size=       1KiB time=00:00:04.66 bitrate=   1.2kbits/s speed=0.105x elapsed=0:00:44.46    \nframe=  285 fps=6.3 q=50.0 size=       1KiB time=00:00:04.73 bitrate=   1.2kbits/s speed=0.105x elapsed=0:00:45.00    \n[out#0/matroska @ 0000019936259000] video:2651KiB audio:0KiB subtitle:0KiB other streams:0KiB global headers:0KiB muxing overhead: 0.079093%\nframe=  300 fps=6.6 q=50.0 Lsize=    2653KiB time=00:00:04.98 bitrate=4361.2kbits/s speed=0.11x elapsed=0:00:45.31    \n",
  "seconds": 45.80610918998718,
  "probe_out": {}
}